<svg width="24" height="25" viewBox="0 0 24 25" fill="none" xmlns="http://www.w3.org/2000/svg">
<g id="apple">
<path id="Vector" d="M22.5 12.5C22.5 18.296 17.8013 23 12 23C6.19875 23 1.5 18.296 1.5 12.5C1.5 6.69875 6.19875 2 12 2C17.8013 2 22.5 6.69875 22.5 12.5Z" fill="#283544"/>
<path id="Vector_2" d="M16.9216 9.84305C16.8643 9.8765 15.5003 10.5819 15.5003 12.1459C15.5646 13.9296 17.2216 14.5551 17.25 14.5551C17.2216 14.5885 16.9999 15.4072 16.343 16.2654C15.8217 17.0047 15.2431 17.75 14.3646 17.75C13.5289 17.75 13.2289 17.2573 12.2646 17.2573C11.229 17.2573 10.936 17.75 10.1431 17.75C9.2646 17.75 8.64315 16.9648 8.09347 16.2325C7.37932 15.274 6.77233 13.7698 6.75091 12.3256C6.73646 11.5603 6.89391 10.808 7.2936 10.1691C7.85775 9.27695 8.86485 8.6714 9.96472 8.65145C10.8074 8.62497 11.5574 9.19062 12.0717 9.19062C12.5646 9.19062 13.486 8.65145 14.5285 8.65145C14.9785 8.6519 16.1785 8.7782 16.9216 9.84305ZM12.0004 8.49867C11.8504 7.79977 12.2646 7.10089 12.6503 6.65508C13.1431 6.11594 13.9216 5.75 14.5928 5.75C14.6357 6.44889 14.3641 7.13431 13.8787 7.63352C13.4431 8.17265 12.6931 8.57855 12.0004 8.49867Z" fill="white"/>
</g>
</svg>
