<svg width="28" height="28" viewBox="0 0 28 28" fill="none" xmlns="http://www.w3.org/2000/svg">
<g id="Frame">
<path id="Vector" d="M18.5938 12.25C18.5938 12.424 18.5246 12.591 18.4015 12.714C18.2785 12.8371 18.1115 12.9062 17.9375 12.9062H10.5C10.326 12.9062 10.159 12.8371 10.036 12.714C9.91289 12.591 9.84375 12.424 9.84375 12.25C9.84375 12.076 9.91289 11.909 10.036 11.786C10.159 11.6629 10.326 11.5938 10.5 11.5938H17.9375C18.1115 11.5938 18.2785 11.6629 18.4015 11.786C18.5246 11.909 18.5938 12.076 18.5938 12.25ZM17.9375 15.0938H10.5C10.326 15.0938 10.159 15.1629 10.036 15.286C9.91289 15.409 9.84375 15.576 9.84375 15.75C9.84375 15.924 9.91289 16.091 10.036 16.214C10.159 16.3371 10.326 16.4062 10.5 16.4062H17.9375C18.1115 16.4062 18.2785 16.3371 18.4015 16.214C18.5246 16.091 18.5938 15.924 18.5938 15.75C18.5938 15.576 18.5246 15.409 18.4015 15.286C18.2785 15.1629 18.1115 15.0938 17.9375 15.0938ZM25.1562 13.5625C25.1531 16.4043 24.0227 19.1288 22.0133 21.1383C20.0038 23.1477 17.2793 24.2781 14.4375 24.2812H5.25C4.84389 24.2812 4.45441 24.1199 4.16724 23.8328C3.88008 23.5456 3.71875 23.1561 3.71875 22.75V13.5625C3.71875 10.7197 4.84804 7.99335 6.8582 5.9832C8.86835 3.97304 11.5947 2.84375 14.4375 2.84375C17.2803 2.84375 20.0066 3.97304 22.0168 5.9832C24.027 7.99335 25.1562 10.7197 25.1562 13.5625ZM23.8438 13.5625C23.8438 11.0678 22.8527 8.67529 21.0887 6.91128C19.3247 5.14726 16.9322 4.15625 14.4375 4.15625C11.9428 4.15625 9.55029 5.14726 7.78628 6.91128C6.02226 8.67529 5.03125 11.0678 5.03125 13.5625V22.75C5.03125 22.808 5.0543 22.8637 5.09532 22.9047C5.13634 22.9457 5.19198 22.9688 5.25 22.9688H14.4375C16.9313 22.9659 19.3221 21.9739 21.0855 20.2105C22.8489 18.4471 23.8409 16.0563 23.8438 13.5625Z" fill="white"/>
</g>
</svg>
