<svg width="25" height="25" viewBox="0 0 25 25" fill="none" xmlns="http://www.w3.org/2000/svg">
<g id="google">
<path id="Vector" d="M23.0011 12.7332C23.0011 11.8699 22.9296 11.2399 22.7749 10.5865H12.7153V14.4832H18.6201C18.5011 15.4516 17.8582 16.9099 16.4296 17.8898L16.4095 18.0203L19.5902 20.435L19.8106 20.4565C21.8344 18.6249 23.0011 15.9298 23.0011 12.7332Z" fill="#4285F4"/>
<path id="Vector_2" d="M12.7147 23C15.6076 23 18.0361 22.0666 19.81 20.4567L16.429 17.8899C15.5242 18.5082 14.3099 18.9399 12.7147 18.9399C9.88145 18.9399 7.47669 17.1083 6.61947 14.5766L6.49382 14.587L3.18656 17.0954L3.14331 17.2132C4.9052 20.6433 8.52425 23 12.7147 23Z" fill="#34A853"/>
<path id="Vector_3" d="M6.6201 14.5767C6.39392 13.9234 6.26301 13.2233 6.26301 12.5C6.26301 11.7766 6.39392 11.0767 6.6082 10.4233L6.60221 10.2841L3.25349 7.73553L3.14393 7.78661C2.41778 9.20998 2.0011 10.8083 2.0011 12.5C2.0011 14.1916 2.41778 15.79 3.14393 17.2133L6.6201 14.5767Z" fill="#FBBC05"/>
<path id="Vector_4" d="M12.7148 6.05997C14.7267 6.05997 16.0838 6.91164 16.8577 7.62335L19.8814 4.73C18.0244 3.03834 15.6076 2 12.7148 2C8.52425 2 4.9052 4.35665 3.14331 7.78662L6.60759 10.4233C7.47672 7.89166 9.88145 6.05997 12.7148 6.05997Z" fill="#EB4335"/>
</g>
</svg>
