<svg width="28" height="28" viewBox="0 0 28 28" fill="none" xmlns="http://www.w3.org/2000/svg">
<g id="Frame">
<path id="Vector" d="M10.8347 14.0667C10.6748 14.0004 10.4989 13.983 10.3291 14.0167C10.1593 14.0503 10.0034 14.1336 9.88094 14.2559L7.51297 16.625H5.25C5.01794 16.625 4.79538 16.7172 4.63128 16.8813C4.46719 17.0454 4.375 17.2679 4.375 17.5V21.875C4.375 22.1071 4.46719 22.3296 4.63128 22.4937C4.79538 22.6578 5.01794 22.75 5.25 22.75H7.51297L9.88094 25.1191C10.0033 25.2416 10.1593 25.325 10.3291 25.3588C10.4989 25.3927 10.675 25.3753 10.8349 25.309C10.9949 25.2428 11.1316 25.1305 11.2278 24.9865C11.3239 24.8425 11.3751 24.6732 11.375 24.5V14.875C11.375 14.7019 11.3236 14.5328 11.2274 14.3889C11.1313 14.245 10.9946 14.1329 10.8347 14.0667ZM9.625 22.388L8.49406 21.2559C8.41274 21.1747 8.31621 21.1103 8.20999 21.0664C8.10377 21.0225 7.98994 20.9999 7.875 21H6.125V18.375H7.875C7.98994 18.3751 8.10377 18.3525 8.20999 18.3086C8.31621 18.2647 8.41274 18.2003 8.49406 18.1191L9.625 16.987V22.388ZM16.625 19.6875C16.6241 20.4593 16.4218 21.2174 16.0382 21.8871C15.6546 22.5567 15.1028 23.1147 14.4375 23.5058C14.2383 23.605 14.0087 23.6245 13.7956 23.5604C13.5824 23.4964 13.4017 23.3535 13.2902 23.1609C13.1787 22.9682 13.1448 22.7404 13.1954 22.5236C13.246 22.3069 13.3773 22.1176 13.5625 21.9942C13.9636 21.7574 14.2961 21.4201 14.5271 21.0156C14.758 20.6111 14.8795 20.1533 14.8795 19.6875C14.8795 19.2217 14.758 18.7639 14.5271 18.3594C14.2961 17.9549 13.9636 17.6176 13.5625 17.3808C13.3773 17.2574 13.246 17.0681 13.1954 16.8514C13.1448 16.6346 13.1787 16.4068 13.2902 16.2141C13.4017 16.0215 13.5824 15.8786 13.7956 15.8146C14.0087 15.7505 14.2383 15.77 14.4375 15.8692C15.1028 16.2603 15.6546 16.8183 16.0382 17.4879C16.4218 18.1576 16.6241 18.9157 16.625 19.6875ZM23.3691 9.00594L17.2441 2.88094C17.1627 2.79971 17.0662 2.7353 16.96 2.69138C16.8538 2.64747 16.7399 2.62491 16.625 2.625H6.125C5.66087 2.625 5.21575 2.80937 4.88756 3.13756C4.55937 3.46575 4.375 3.91087 4.375 4.375V13.125C4.375 13.3571 4.46719 13.5796 4.63128 13.7437C4.79538 13.9078 5.01794 14 5.25 14C5.48206 14 5.70462 13.9078 5.86872 13.7437C6.03281 13.5796 6.125 13.3571 6.125 13.125V4.375H15.75V9.625C15.75 9.85706 15.8422 10.0796 16.0063 10.2437C16.1704 10.4078 16.3929 10.5 16.625 10.5H21.875V23.625H18.375C18.1429 23.625 17.9204 23.7172 17.7563 23.8813C17.5922 24.0454 17.5 24.2679 17.5 24.5C17.5 24.7321 17.5922 24.9546 17.7563 25.1187C17.9204 25.2828 18.1429 25.375 18.375 25.375H21.875C22.3391 25.375 22.7842 25.1906 23.1124 24.8624C23.4406 24.5343 23.625 24.0891 23.625 23.625V9.625C23.6251 9.51006 23.6025 9.39623 23.5586 9.29001C23.5147 9.18379 23.4503 9.08726 23.3691 9.00594ZM17.5 5.61203L20.638 8.75H17.5V5.61203Z" fill="white"/>
</g>
</svg>
