<svg width="28" height="28" viewBox="0 0 28 28" fill="none" xmlns="http://www.w3.org/2000/svg">
<g id="Frame">
<path id="Vector" d="M9.84375 7C9.84375 6.82595 9.91289 6.65903 10.036 6.53596C10.159 6.41289 10.326 6.34375 10.5 6.34375H23.625C23.799 6.34375 23.966 6.41289 24.089 6.53596C24.2121 6.65903 24.2812 6.82595 24.2812 7C24.2812 7.17405 24.2121 7.34097 24.089 7.46404C23.966 7.58711 23.799 7.65625 23.625 7.65625H10.5C10.326 7.65625 10.159 7.58711 10.036 7.46404C9.91289 7.34097 9.84375 7.17405 9.84375 7ZM23.625 13.3438H10.5C10.326 13.3438 10.159 13.4129 10.036 13.536C9.91289 13.659 9.84375 13.826 9.84375 14C9.84375 14.174 9.91289 14.341 10.036 14.464C10.159 14.5871 10.326 14.6562 10.5 14.6562H23.625C23.799 14.6562 23.966 14.5871 24.089 14.464C24.2121 14.341 24.2812 14.174 24.2812 14C24.2812 13.826 24.2121 13.659 24.089 13.536C23.966 13.4129 23.799 13.3438 23.625 13.3438ZM23.625 20.3438H10.5C10.326 20.3438 10.159 20.4129 10.036 20.536C9.91289 20.659 9.84375 20.826 9.84375 21C9.84375 21.174 9.91289 21.341 10.036 21.464C10.159 21.5871 10.326 21.6562 10.5 21.6562H23.625C23.799 21.6562 23.966 21.5871 24.089 21.464C24.2121 21.341 24.2812 21.174 24.2812 21C24.2812 20.826 24.2121 20.659 24.089 20.536C23.966 20.4129 23.799 20.3438 23.625 20.3438ZM6.125 6.34375H4.375C4.20095 6.34375 4.03403 6.41289 3.91096 6.53596C3.78789 6.65903 3.71875 6.82595 3.71875 7C3.71875 7.17405 3.78789 7.34097 3.91096 7.46404C4.03403 7.58711 4.20095 7.65625 4.375 7.65625H6.125C6.29905 7.65625 6.46597 7.58711 6.58904 7.46404C6.71211 7.34097 6.78125 7.17405 6.78125 7C6.78125 6.82595 6.71211 6.65903 6.58904 6.53596C6.46597 6.41289 6.29905 6.34375 6.125 6.34375ZM6.125 13.3438H4.375C4.20095 13.3438 4.03403 13.4129 3.91096 13.536C3.78789 13.659 3.71875 13.826 3.71875 14C3.71875 14.174 3.78789 14.341 3.91096 14.464C4.03403 14.5871 4.20095 14.6562 4.375 14.6562H6.125C6.29905 14.6562 6.46597 14.5871 6.58904 14.464C6.71211 14.341 6.78125 14.174 6.78125 14C6.78125 13.826 6.71211 13.659 6.58904 13.536C6.46597 13.4129 6.29905 13.3438 6.125 13.3438ZM6.125 20.3438H4.375C4.20095 20.3438 4.03403 20.4129 3.91096 20.536C3.78789 20.659 3.71875 20.826 3.71875 21C3.71875 21.174 3.78789 21.341 3.91096 21.464C4.03403 21.5871 4.20095 21.6562 4.375 21.6562H6.125C6.29905 21.6562 6.46597 21.5871 6.58904 21.464C6.71211 21.341 6.78125 21.174 6.78125 21C6.78125 20.826 6.71211 20.659 6.58904 20.536C6.46597 20.4129 6.29905 20.3438 6.125 20.3438Z" fill="white"/>
</g>
</svg>
