<svg width="28" height="28" viewBox="0 0 28 28" fill="none" xmlns="http://www.w3.org/2000/svg">
<g id="Frame">
<path id="Vector" d="M27.032 23.2334L20.907 10.9834C20.8344 10.8381 20.7226 10.7159 20.5844 10.6305C20.4462 10.5451 20.2869 10.4998 20.1245 10.4998C19.962 10.4998 19.8027 10.5451 19.6645 10.6305C19.5263 10.7159 19.4146 10.8381 19.3419 10.9834L16.9673 15.7336C15.1061 15.6289 13.3153 14.986 11.8125 13.883C13.5757 12 14.6441 9.57207 14.8411 7H17.5C17.7321 7 17.9546 6.90781 18.1187 6.74372C18.2828 6.57962 18.375 6.35706 18.375 6.125C18.375 5.89294 18.2828 5.67038 18.1187 5.50628C17.9546 5.34219 17.7321 5.25 17.5 5.25H11.375V3.5C11.375 3.26794 11.2828 3.04538 11.1187 2.88128C10.9546 2.71719 10.7321 2.625 10.5 2.625C10.2679 2.625 10.0454 2.71719 9.88128 2.88128C9.71719 3.04538 9.625 3.26794 9.625 3.5V5.25H3.5C3.26794 5.25 3.04538 5.34219 2.88128 5.50628C2.71719 5.67038 2.625 5.89294 2.625 6.125C2.625 6.35706 2.71719 6.57962 2.88128 6.74372C3.04538 6.90781 3.26794 7 3.5 7H13.0845C12.8896 9.14446 11.9794 11.1611 10.5 12.7258C9.57814 11.7531 8.87024 10.5981 8.42188 9.33516C8.38501 9.22497 8.32656 9.12323 8.24995 9.03587C8.17334 8.94851 8.0801 8.87728 7.97567 8.82635C7.87124 8.77541 7.75771 8.74579 7.6417 8.7392C7.5257 8.73261 7.40954 8.74919 7.30001 8.78798C7.19049 8.82676 7.08978 8.88697 7.00377 8.9651C6.91776 9.04322 6.84818 9.13769 6.79907 9.24299C6.74997 9.3483 6.72233 9.46233 6.71776 9.57843C6.7132 9.69454 6.73181 9.81038 6.7725 9.91922C7.29451 11.3956 8.1168 12.7479 9.1875 13.8906C7.53896 15.102 5.54578 15.7537 3.5 15.75C3.26794 15.75 3.04538 15.8422 2.88128 16.0063C2.71719 16.1704 2.625 16.3929 2.625 16.625C2.625 16.8571 2.71719 17.0796 2.88128 17.2437C3.04538 17.4078 3.26794 17.5 3.5 17.5C6.03814 17.5028 8.50354 16.6523 10.5 15.085C12.1292 16.358 14.0741 17.1637 16.1263 17.4158L13.2169 23.2334C13.1655 23.3362 13.1348 23.4481 13.1266 23.5627C13.1184 23.6773 13.1329 23.7925 13.1692 23.9015C13.2425 24.1217 13.4003 24.3037 13.6079 24.4076C13.8154 24.5114 14.0557 24.5286 14.2759 24.4552C14.4961 24.3819 14.6782 24.2241 14.782 24.0166L16.2903 21H23.9586L25.4669 24.0166C25.5396 24.1619 25.6514 24.2842 25.7897 24.3696C25.9281 24.4549 26.0874 24.5001 26.25 24.5C26.3991 24.4999 26.5458 24.4617 26.676 24.389C26.8062 24.3164 26.9157 24.2116 26.994 24.0847C27.0724 23.9578 27.117 23.813 27.1237 23.664C27.1303 23.515 27.0988 23.3668 27.032 23.2334ZM17.1653 19.25L20.125 13.3317L23.0836 19.25H17.1653Z" fill="white"/>
</g>
</svg>
